<svg width="1920" height="1080" viewBox="0 0 1920 1080" fill="none" xmlns="http://www.w3.org/2000/svg">
<g clip-path="url(#clip0_38_5)">
<path d="M-418.824 196.439L-744.438 234.817L-736.515 302.056L150.093 197.508V196.439H-418.824Z" fill="#E71731"/>
<path d="M-720.648 436.494L150.093 333.811V265.649L-728.592 369.275L-720.648 436.494Z" fill="#E71731"/>
<path d="M-704.802 570.931L150.093 470.135V401.973L-712.725 503.712L-704.802 570.931Z" fill="#E71731"/>
<path d="M-1296 776.968L150.093 606.438V538.296L-1296 708.806V776.968Z" fill="#E71731"/>
<path d="M-1296 913.271L150.093 742.761V674.599L-1296 845.13V913.271Z" fill="#E71731"/>
<path d="M-519.579 958.042L150.093 879.064V810.923L-1097.59 958.042H-519.579Z" fill="#E71731"/>
<path d="M-1296 845.13L150.093 674.6V606.438L-1296 776.968V845.13Z" fill="white"/>
<path d="M-712.725 503.713L150.093 401.973V333.811L-720.648 436.494L-712.725 503.713Z" fill="white"/>
<path d="M-736.515 302.056L-728.592 369.275L150.093 265.649V197.507L-736.515 302.056Z" fill="white"/>
<path d="M-704.802 570.931L-1296 640.644V708.806L150.093 538.296V470.135L-704.802 570.931Z" fill="white"/>
<path d="M-1296 958.042H-1097.59L150.093 810.923V742.761L-1296 913.271V958.042Z" fill="white"/>
<path d="M1761 776.529L3207.09 605.999V537.858L1761 708.367V776.529Z" fill="#E71731"/>
<path d="M1761 912.832L3207.09 742.322V674.161L1761 844.691V912.832Z" fill="#E71731"/>
<path d="M1810.65 196H1809.98L1810 196.063L1810.65 196Z" fill="#304F7D"/>
<path d="M1847.4 553.41L1851.09 561.438L1855.63 571.289L1875.19 568.983L1860.73 582.335L1868.96 600.235L1851.78 590.593L1837.32 603.966L1841.17 584.641L1823.98 575.02L1843.54 572.714L1845.68 562.067L1847.4 553.41ZM1808.37 559.677L1791.18 550.035L1776.72 563.408L1780.58 544.083L1763.39 534.462L1782.95 532.157L1786.8 512.831L1795.04 530.731L1814.59 528.426L1800.13 541.778L1808.37 559.677ZM1814.26 480.889L1833.81 478.583L1837.67 459.258L1845.91 477.158L1865.46 474.852L1850.98 488.203L1853.2 493.024L1859.22 506.103L1842.05 496.462L1827.59 509.834L1830.4 495.707L1831.43 490.509L1814.26 480.889ZM1886.17 405.978L1892.71 420.21L1894.41 423.878L1913.97 421.572L1899.5 434.923L1907.74 452.802L1890.55 443.182L1876.09 456.533L1879.95 437.229L1862.76 427.608L1882.32 425.303L1883.11 421.341L1886.17 405.978ZM1847.25 413.334L1830.06 403.693L1815.6 417.066L1819.46 397.74L1802.27 388.119L1821.83 385.814L1825.68 366.51L1833.92 384.389L1853.48 382.083L1839.01 395.435L1847.25 413.334ZM1851.51 334.86L1871.06 332.555L1874.9 313.25L1883.13 331.13L1902.69 328.824L1888.23 342.196L1892.78 352.047L1896.46 360.075L1883.97 353.074L1879.3 350.454L1875.34 354.102L1864.81 363.806L1866.55 355.129L1868.67 344.502L1851.51 334.86ZM1792.29 295.728L1789.51 294.177L1809.06 291.871L1812.9 272.567L1821.13 290.446L1840.69 288.14L1838.36 290.299L1826.23 301.492L1834.46 319.392L1817.3 309.75L1802.84 323.123L1806.67 303.798L1792.29 295.728ZM1862.4 218.867L1862.59 219.287L1870.64 236.767L1890.2 234.462L1875.71 247.814L1883.95 265.692L1866.79 256.071L1852.32 269.423L1856.16 250.119L1838.99 240.498L1858.55 238.193L1862.3 219.329L1862.4 218.867ZM1919.16 278.897L1923.02 259.572L1931.26 277.451L1950.81 275.145L1948.47 277.325L1936.35 288.518L1944.59 306.397L1927.4 296.776L1912.94 310.127L1916.8 290.823L1902.4 282.754L1899.61 281.203L1919.16 278.897ZM1972.51 205.894L1972.7 206.313L1980.74 223.772L2000.3 221.467L1985.84 234.839L1994.08 252.718L1976.89 243.098L1962.43 256.449L1966.28 237.145L1949.09 227.503L1968.65 225.198L1972.42 206.334L1972.51 205.894ZM2029.29 265.902L2033.12 246.598L2041.36 264.477L2060.92 262.171L2058.57 264.33L2046.45 275.522L2054.69 293.422L2037.53 283.781L2023.04 297.153L2026.9 277.849L2012.5 269.758L2009.73 268.207L2029.29 265.902ZM2139.39 252.927L2143.23 233.602L2151.46 251.502L2171.02 249.197L2168.69 251.355L2156.56 262.548L2164.79 280.427L2147.63 270.806L2133.17 284.158L2137 264.854L2122.62 256.784L2119.84 255.233L2139.39 252.927ZM2249.49 239.932L2253.35 220.628L2261.59 238.507L2281.14 236.202L2278.8 238.36L2266.68 249.553L2274.92 267.453L2257.73 257.832L2243.27 271.184L2247.13 251.859L2232.73 243.789L2229.94 242.238L2249.49 239.932ZM2226.79 321.131L2214.3 314.131L2209.63 311.49L2205.67 315.158L2195.14 324.862L2196.88 316.185L2199 305.537L2181.83 295.917L2201.39 293.611L2205.23 274.307L2213.46 292.186L2233.02 289.88L2218.56 303.231L2223.11 313.083L2226.79 321.131ZM2287.68 361.395L2270.5 351.754L2256.03 365.126L2259.89 345.822L2242.72 336.181L2262.28 333.875L2266.11 314.571L2274.35 332.45L2293.91 330.144L2279.45 343.517L2287.68 361.395ZM2224.74 384.913L2244.3 382.607L2229.83 395.979L2238.07 413.858L2220.88 404.238L2206.42 417.59L2210.28 398.285L2193.09 388.643L2212.65 386.338L2213.44 382.398L2216.5 367.034L2223.04 381.245L2224.74 384.913ZM2299.67 454.165L2282.48 444.523L2268.02 457.895L2270.83 443.768L2271.88 438.57L2254.69 428.95L2274.25 426.644L2278.1 407.34L2286.34 425.219L2305.9 422.913L2291.43 436.265L2293.66 441.086L2299.67 454.165ZM2296.07 519.35L2315.62 517.045L2301.16 530.417L2309.4 548.296L2292.23 538.675L2277.77 552.027L2281.6 532.723L2264.44 523.081L2283.99 520.775L2286.11 510.128L2287.85 501.471L2291.54 509.499L2296.07 519.35ZM1953.66 559.74L1955.78 549.092L1957.52 540.415L1961.21 548.443L1965.74 558.315L1985.29 556.009L1970.83 569.361L1979.07 587.24L1961.9 577.619L1947.44 590.97L1951.27 571.666L1934.11 562.046L1953.66 559.74ZM1893.05 519.162L1896.9 499.858L1905.14 517.736L1924.7 515.431L1910.24 528.803L1918.47 546.682L1901.29 537.062L1886.82 550.413L1890.68 531.109L1873.51 521.467L1893.05 519.162ZM1996.28 393.003L2002.84 407.214L2004.51 410.882L2024.07 408.577L2009.61 421.949L2017.84 439.828L2000.66 430.207L1986.19 443.559L1990.05 424.255L1972.88 414.613L1992.44 412.307L1993.22 408.346L1996.28 393.003ZM1931.93 372.819L1935.79 353.515L1944.02 371.414L1963.58 369.109L1949.12 382.46L1957.35 400.339L1940.17 390.719L1925.7 404.07L1929.56 384.766L1912.39 375.124L1931.93 372.819ZM2177.58 374.37L2160.39 364.749L2145.93 378.101L2149.79 358.797L2132.6 349.176L2152.16 346.87L2156.01 327.545L2164.25 345.445L2183.81 343.139L2169.34 356.491L2177.58 374.37ZM2114.62 397.908L2134.17 395.602L2119.71 408.954L2127.95 426.854L2110.78 417.212L2096.32 430.585L2100.15 411.259L2082.99 401.639L2102.54 399.333L2103.32 395.372L2106.4 380.029L2112.94 394.24L2114.62 397.908ZM2183.53 454.081L2189.55 467.139L2172.38 457.518L2157.92 470.87L2160.73 456.763L2161.76 451.566L2144.59 441.924L2164.14 439.618L2168 420.314L2176.24 438.193L2195.79 435.887L2181.31 449.26L2183.53 454.081ZM2248.8 507.738L2231.61 498.097L2217.15 511.469L2221.01 492.144L2203.84 482.523L2223.4 480.218L2227.23 460.914L2235.47 478.793L2255.03 476.487L2240.56 489.838L2248.8 507.738ZM2003.17 506.187L2007.03 486.862L2015.24 504.762L2034.8 502.456L2020.34 515.808L2028.58 533.708L2011.41 524.066L1996.95 537.439L2000.78 518.114L1983.62 508.493L2003.17 506.187ZM2138.7 520.713L2121.51 511.092L2107.05 524.443L2110.91 505.139L2093.72 495.498L2113.27 493.192L2117.13 473.888L2125.37 491.767L2144.92 489.461L2130.46 502.834L2138.7 520.713ZM2067.46 387.365L2050.29 377.723L2035.83 391.096L2039.66 371.771L2022.5 362.15L2042.05 359.845L2045.91 340.54L2054.15 358.419L2073.68 356.114L2059.22 369.465L2067.46 387.365ZM2034.49 454.919L2054.04 452.614L2057.88 433.288L2066.11 451.188L2085.67 448.883L2071.21 462.234L2073.43 467.055L2079.45 480.134L2062.28 470.492L2047.8 483.865L2050.63 469.738L2051.65 464.54L2034.49 454.919ZM2075.86 545.319L2095.42 543.014L2080.95 556.386L2089.19 574.265L2072 564.624L2057.54 577.996L2061.4 558.692L2044.21 549.05L2063.77 546.745L2065.88 536.097L2067.62 527.441L2071.31 535.468L2075.86 545.319ZM2185.96 532.346L2205.52 530.04L2191.06 543.391L2199.29 561.27L2182.11 551.65L2167.64 565.001L2171.5 545.697L2154.34 536.076L2173.89 533.771L2176.01 523.123L2177.73 514.446L2181.44 522.473L2185.96 532.346ZM2071.71 308.891L2091.27 306.585L2095.12 287.281L2103.36 305.181L2122.92 302.854L2108.45 316.227L2112.98 326.078L2116.69 334.106L2104.2 327.105L2099.5 324.485L2095.56 328.132L2085.04 337.837L2086.78 329.159L2088.9 318.532L2071.71 308.891ZM1961.61 321.886L1981.16 319.58L1985.02 300.276L1993.26 318.155L2012.81 315.85L1998.35 329.201L2002.88 339.052L2006.57 347.101L1994.1 340.1L1989.4 337.459L1985.44 341.106L1974.94 350.832L1976.66 342.154L1978.8 331.507L1961.61 321.886ZM1924.36 467.894L1943.92 465.588L1947.77 446.283L1956.01 464.162L1975.57 461.857L1961.11 475.23L1963.33 480.029L1969.34 493.108L1952.16 483.487L1937.69 496.839L1940.5 482.733L1941.55 477.535L1924.36 467.894ZM2344.27 503.274L2336.35 436.055L2328.41 368.836L2320.49 301.618L2312.56 234.378L2308.03 196H2220L2206.04 208.87L2214.28 226.749L2197.11 217.128L2182.65 230.479L2186.49 211.175L2169.32 201.534L2188.88 199.228L2189.53 196H2084.04L2090.85 210.798L2110.4 208.492L2095.94 221.844L2104.18 239.744L2087.01 230.102L2072.53 243.475L2076.39 224.15L2059.22 214.529L2078.77 212.223L2082 196H2060.18H2042.16L2043.08 198.012L2043.56 199.039L2041.97 198.138L2038.13 196H2019.27L2013.27 201.513L2011.91 202.77L2012.14 201.659L2013.27 196H1926.06L1932.98 210.987L1933.46 212.014L1931.84 211.112L1916.27 202.393L1903.15 214.508L1901.81 215.745L1902.04 214.634L1905.67 196.44L1904.85 196H1827.15L1815.1 207.109L1822.87 223.982L1823.33 225.009L1821.74 224.107L1806.17 215.367L1793.05 227.482L1791.71 228.74L1791.92 227.629L1795.54 209.415L1778.38 199.794L1797.93 197.488L1798.22 196H1761V231.276V249.7L1780.07 247.436L1765.61 260.809L1773.85 278.687L1761 271.477V299.417V345.298L1764.79 326.246L1773.03 344.125L1792.59 341.819L1778.12 355.17L1782.65 365.022L1786.36 373.07L1773.87 366.07L1769.17 363.429L1765.23 367.076L1761 370.995V435.741V439.598L1772.21 438.277L1772.99 434.315L1776.05 418.973L1782.61 433.183L1784.29 436.851L1803.84 434.546L1789.38 447.918L1797.62 465.798L1780.45 456.177L1765.99 469.528L1769.82 450.224L1761 445.257V503.903V572.065V582.461L1765.09 581.979L1761 585.751V640.206L2352.2 570.493L2344.27 503.274Z" fill="#304F7D"/>
<path d="M1761 844.691L3207.09 674.161V605.999L1761 776.529V844.691Z" fill="white"/>
<path d="M2352.2 570.493L1761 640.206V708.367L3207.09 537.858V469.696L2352.2 570.493Z" fill="white"/>
<path d="M1761 957.603H1959.41L3207.09 810.485V742.323L1761 912.832V957.603Z" fill="white"/>
<path d="M1791.92 227.629L1791.71 228.74L1793.05 227.482L1806.17 215.367L1821.74 224.108L1823.33 225.009L1822.87 223.982L1815.1 207.109L1827.15 196H1810.65L1810 196.063L1809.98 196H1798.22L1797.93 197.488L1778.38 199.794L1795.54 209.415L1791.92 227.629Z" fill="white"/>
<path d="M1916.27 202.393L1931.84 211.112L1933.46 212.014L1932.98 210.987L1926.06 196H1904.85L1905.67 196.44L1902.04 214.634L1901.81 215.745L1903.15 214.508L1916.27 202.393Z" fill="white"/>
<path d="M1765.61 260.809L1780.07 247.436L1761 249.7V271.477L1773.85 278.688L1765.61 260.809Z" fill="white"/>
<path d="M1852.32 269.423L1866.79 256.071L1883.95 265.692L1875.71 247.813L1890.2 234.462L1870.64 236.767L1862.59 219.287L1862.4 218.867L1862.3 219.329L1858.55 238.193L1838.99 240.498L1856.16 250.119L1852.32 269.423Z" fill="white"/>
<path d="M1840.69 288.14L1821.13 290.446L1812.9 272.567L1809.06 291.871L1789.51 294.177L1792.29 295.728L1806.67 303.798L1802.84 323.123L1817.3 309.75L1834.46 319.392L1826.23 301.492L1838.36 290.299L1840.69 288.14Z" fill="white"/>
<path d="M1916.8 290.823L1912.94 310.127L1927.4 296.776L1944.59 306.397L1936.35 288.518L1948.47 277.325L1950.81 275.145L1931.26 277.451L1923.02 259.572L1919.16 278.897L1899.61 281.203L1902.4 282.754L1916.8 290.823Z" fill="white"/>
<path d="M1769.17 363.429L1773.87 366.07L1786.36 373.07L1782.65 365.022L1778.12 355.17L1792.59 341.819L1773.03 344.125L1764.79 326.246L1761 345.298V367.579V370.995L1765.23 367.076L1769.17 363.429Z" fill="white"/>
<path d="M1883.13 331.13L1874.9 313.251L1871.06 332.555L1851.5 334.86L1868.67 344.502L1866.55 355.129L1864.81 363.806L1875.34 354.102L1879.3 350.455L1883.97 353.075L1896.46 360.076L1892.78 352.048L1888.23 342.196L1902.69 328.824L1883.13 331.13Z" fill="white"/>
<path d="M1815.6 417.066L1830.06 403.693L1847.25 413.335L1839.01 395.435L1853.47 382.083L1833.92 384.389L1825.68 366.51L1821.83 385.814L1802.27 388.12L1819.46 397.74L1815.6 417.066Z" fill="white"/>
<path d="M1935.79 353.514L1931.93 372.818L1912.39 375.124L1929.56 384.766L1925.7 404.07L1940.17 390.718L1957.35 400.339L1949.12 382.46L1963.58 369.109L1944.02 371.414L1935.79 353.514Z" fill="white"/>
<path d="M1830.4 495.707L1827.59 509.834L1842.05 496.462L1859.22 506.103L1853.2 493.024L1850.98 488.204L1865.46 474.852L1845.91 477.158L1837.67 459.258L1833.81 478.583L1814.26 480.889L1831.43 490.509L1830.4 495.707Z" fill="white"/>
<path d="M1761 582.461V585.751L1765.09 581.978L1761 582.461Z" fill="white"/>
<path d="M1855.63 571.289L1851.09 561.438L1847.4 553.41L1845.68 562.067L1843.54 572.715L1823.98 575.02L1841.17 584.641L1837.31 603.966L1851.78 590.593L1868.96 600.235L1860.73 582.335L1875.19 568.983L1855.63 571.289Z" fill="white"/>
<path d="M1765.99 469.528L1780.45 456.177L1797.62 465.797L1789.38 447.918L1803.84 434.546L1784.29 436.851L1782.61 433.183L1776.05 418.973L1772.99 434.315L1772.21 438.277L1761 439.597V445.257L1769.82 450.224L1765.99 469.528Z" fill="white"/>
<path d="M1892.71 420.21L1886.17 405.978L1883.11 421.341L1882.32 425.303L1862.76 427.608L1879.95 437.229L1876.09 456.533L1890.55 443.182L1907.74 452.802L1899.5 434.923L1913.97 421.572L1894.41 423.878L1892.71 420.21Z" fill="white"/>
<path d="M1795.04 530.731L1786.8 512.831L1782.95 532.156L1763.39 534.462L1780.58 544.083L1776.72 563.408L1791.18 550.035L1808.37 559.677L1800.13 541.777L1814.6 528.425L1795.04 530.731Z" fill="white"/>
<path d="M1905.14 517.736L1896.9 499.857L1893.05 519.162L1873.51 521.467L1890.68 531.109L1886.82 550.413L1901.29 537.061L1918.47 546.682L1910.24 528.803L1924.7 515.431L1905.14 517.736Z" fill="white"/>
</g>
<defs>
<clipPath id="clip0_38_5">
<rect width="1920" height="1080" fill="white"/>
</clipPath>
</defs>
</svg>
