<svg width="1920" height="1080" viewBox="0 0 1920 1080" fill="none" xmlns="http://www.w3.org/2000/svg">
<g clip-path="url(#clip0_63_4)">
<path d="M928.397 117.848C943.272 117.848 958.146 117.848 973.021 117.848C993.084 117.848 1010.48 110.305 1030.1 106.547C1087.58 95.541 1146.08 90.0908 1204.44 86.1671C1242.83 83.5869 1281.48 83.0763 1319.96 83.0763C1358.14 83.0763 1397.08 82.003 1434.9 87.9057C1456.33 91.2507 1476.72 99.5536 1496.81 107.416C1528.84 119.949 1556.91 131.333 1591.28 136.875C1626.85 142.613 1662.79 146.552 1698.49 151.46C1701.39 151.859 1714.36 152.619 1714.23 152.619" stroke="black" stroke-width="30" stroke-linecap="round"/>
<path d="M0 102.201C39.6975 102.201 78.3257 93.925 117.74 91.6728C136.512 90.6001 156.86 84.1643 175.596 86.94C197.359 90.1642 219.169 94.6549 241.082 96.5987C266.078 98.8161 290.375 108.194 315.358 111.763C345.631 116.088 376.647 113.839 407.116 114.467C457.365 115.503 510.311 116.593 559.82 125.189C571.907 127.287 583.181 130.018 595.364 130.018C661.806 130.018 727.365 110.894 793.658 110.894C812.32 110.894 830.576 110.099 849.196 108.769C876.227 106.838 903.634 102.201 930.716 102.201C946.56 102.201 950.76 105.292 950.76 116.001C950.76 122.334 1014.83 98.9903 995.76 118.501C999.505 113.82 894.765 102.201 890.76 102.201" stroke="black" stroke-width="30" stroke-linecap="round"/>
<path d="M1710.75 152.619C1753.23 152.619 1795.41 153.523 1837.57 147.403C1869.64 142.748 1901.53 137.627 1932.71 128.569C1950.98 123.261 1971.9 118.029 1987.96 107.416C1991.22 105.259 1989.8 103.501 1992.4 102.2" stroke="black" stroke-width="30" stroke-linecap="round"/>
</g>
<defs>
<clipPath id="clip0_63_4">
<rect width="1920" height="1080" fill="white"/>
</clipPath>
</defs>
</svg>
