<svg width="1920" height="1080" viewBox="0 0 1920 1080" fill="none" xmlns="http://www.w3.org/2000/svg">
<g clip-path="url(#clip0_9_4776)">
<rect width="1920" height="1080" fill="white"/>
<g opacity="0.1">
<path d="M1792.8 493.3C1752.35 480.273 1671.42 488.604 1607.93 531.769C1544.43 574.984 1513.52 638.408 1537.48 670.725C1561.45 703.121 1645.23 691.573 1678.2 719.303C1711.16 747.132 1736.39 810.593 1789.62 822.092C1842.86 833.542 1883.01 697.061 1879.44 629.807C1875.9 562.482 1856.91 513.942 1792.8 493.3Z" fill="#FF90B8"/>
<path d="M2051.56 585.204C2042.7 558.251 2005.16 548.615 1967.87 563.444C1930.57 578.274 1907.65 611.94 1916.54 638.871C1925.41 665.774 1962.76 675.816 2000.03 661.008C2037.34 646.206 2060.45 612.136 2051.56 585.204Z" fill="#FF90B8"/>
<path d="M1768.38 444.919C1803.59 454.768 1844.44 421.262 1857.77 369.425C1871.63 317.82 1854.46 268.558 1819.44 259.272C1784.45 250.015 1745.01 283.937 1731.35 335.137C1718.18 386.54 1733.24 435.105 1768.38 444.919Z" fill="#FF90B8"/>
<path d="M1680.81 390.307C1676.57 351.027 1648.83 322.17 1621.84 326.847C1594.97 331.618 1575.61 366.504 1580.35 405.859C1584.93 445.113 1611.05 473.703 1638.73 469.486C1666.45 465.198 1685.34 429.682 1680.81 390.307Z" fill="#FF90B8"/>
<path d="M1992.59 490.584C2028.85 451.703 2037.61 398.725 2011.98 372.476C1986.38 346.255 1936.16 356.504 1900.06 395.051C1864.49 433.908 1854.12 485.6 1879.07 511.902C1904.01 538.175 1955.19 528.988 1992.59 490.584Z" fill="#FF90B8"/>
</g>
<g opacity="0.1">
<path d="M116.684 543.196C88.8625 575.31 64.842 653.043 79.7025 728.367C94.6058 803.717 140.865 856.988 179.982 847.598C219.176 838.226 241.353 756.611 279.778 737.129C318.289 717.699 386.564 719.324 417.986 674.845C449.365 630.339 339.499 539.962 276.215 516.919C212.879 493.816 160.781 492.279 116.684 543.196Z" fill="#FF90B8"/>
<path d="M302.562 341.073C274.292 338.674 250.728 369.441 249.771 409.566C248.815 449.691 270.821 483.959 299.083 486.323C327.31 488.696 351.173 458.261 352.138 418.17C353.129 378.037 330.824 343.437 302.562 341.073Z" fill="#FF90B8"/>
<path d="M62.6048 546.722C85.4544 518.178 70.6174 467.468 28.1376 434.908C-13.9233 401.955 -65.9748 398.465 -88.2285 427.05C-110.448 455.627 -94.6745 505.197 -52.9127 537.818C-10.7667 570.055 39.8161 575.216 62.6048 546.722Z" fill="#FF90B8"/>
<path d="M-21.9334 605.92C-59.7381 594.444 -97.1501 608.665 -103.413 635.332C-109.546 661.93 -85.0221 693.399 -46.9537 704.446C-9.04199 715.603 27.4913 702.764 34.4504 675.638C41.3583 648.451 16.0725 617.166 -21.9334 605.92Z" fill="#FF90B8"/>
<path d="M192.41 358.286C170.828 309.702 125.509 280.899 91.3216 294.202C57.1688 307.498 46.9392 357.717 68.2735 406.031C90.1044 453.969 133.606 483.757 167.58 471.091C201.519 458.432 213.102 407.743 192.41 358.286Z" fill="#FF90B8"/>
</g>
<g opacity="0.1">
<path d="M956.684 540.196C928.863 572.31 904.842 650.043 919.702 725.367C934.606 800.717 980.865 853.988 1019.98 844.598C1059.18 835.226 1081.35 753.611 1119.78 734.129C1158.29 714.699 1226.56 716.324 1257.99 671.845C1289.37 627.339 1179.5 536.962 1116.21 513.919C1052.88 490.816 1000.78 489.279 956.684 540.196Z" fill="#FF90B8"/>
<path d="M1142.56 338.073C1114.29 335.674 1090.73 366.441 1089.77 406.566C1088.81 446.691 1110.82 480.959 1139.08 483.323C1167.31 485.696 1191.17 455.261 1192.14 415.17C1193.13 375.037 1170.82 340.437 1142.56 338.073Z" fill="#FF90B8"/>
<path d="M902.605 543.722C925.454 515.178 910.617 464.468 868.138 431.908C826.077 398.955 774.025 395.465 751.771 424.05C729.552 452.627 745.325 502.197 787.087 534.818C829.233 567.055 879.816 572.216 902.605 543.722Z" fill="#FF90B8"/>
<path d="M818.067 602.92C780.262 591.444 742.85 605.665 736.587 632.332C730.454 658.93 754.978 690.399 793.046 701.446C830.958 712.603 867.491 699.764 874.45 672.638C881.358 645.451 856.072 614.166 818.067 602.92Z" fill="#FF90B8"/>
<path d="M1032.41 355.286C1010.83 306.702 965.509 277.899 931.322 291.202C897.169 304.498 886.939 354.717 908.274 403.031C930.104 450.969 973.606 480.757 1007.58 468.091C1041.52 455.432 1053.1 404.743 1032.41 355.286Z" fill="#FF90B8"/>
</g>
</g>
<defs>
<clipPath id="clip0_9_4776">
<rect width="1920" height="1080" fill="white"/>
</clipPath>
</defs>
</svg>
