<svg width="128" height="136" viewBox="0 0 128 136" fill="none" xmlns="http://www.w3.org/2000/svg">
<circle cx="64" cy="72" r="60" fill="black" stroke="black" stroke-width="8"/>
<circle cx="64" cy="64" r="60" fill="#1A3D61" stroke="#C91A41" stroke-width="8"/>
<path d="M77.6893 91.4434L61.9936 68.639L59.7584 65.3927L41.5454 38.9308H49.3798L64.1089 60.3312L66.3439 63.5774L85.5237 91.4434H77.6893ZM88.7625 89.2159L68.9937 60.4956L66.7587 57.2474L52.6172 36.7028L51.4452 35.0002H34.0684L38.3063 41.1584L57.1088 68.478L59.3439 71.7228L74.4515 93.6734L75.6237 95.374H93.0005L88.7625 89.2159Z" fill="white"/>
<path d="M59.758 65.3927L61.9932 68.639L59.3435 71.7228L39.0133 95.374H34L57.1084 68.478L59.758 65.3927Z" fill="white"/>
<path d="M90.909 34.9999L68.9941 60.4953L66.3444 63.5771L64.1094 60.3309L66.7591 57.2471L81.604 39.9686L85.8957 34.9999H90.909Z" fill="white"/>
</svg>
