<svg width="128" height="136" viewBox="0 0 128 136" fill="none" xmlns="http://www.w3.org/2000/svg">
<circle cx="64" cy="72" r="60" fill="black" stroke="black" stroke-width="8"/>
<circle cx="64" cy="64" r="60" fill="#1A3D61" stroke="#C91A41" stroke-width="8"/>
<path d="M34.9707 64.1538L44.0784 60.1692V49.923L54.3245 55.6153L63.4322 51.6307L44.0784 40.2461L34.9707 44.7999V64.1538Z" fill="white"/>
<path d="M93.6004 44.8L85.6312 40.8154L75.385 46.5077L82.2158 49.9231L34.4004 72.1231V83.5077L41.8004 86.9231L52.6158 82.3693L45.785 78.3847L93.6004 56.7539V44.8Z" fill="white"/>
<path d="M93.6002 82.3692V64.1538L85.0617 67.5692V77.8153L74.2464 72.6923L65.1387 77.8153L85.0617 87.4923L93.6002 82.3692Z" fill="white"/>
<path d="M64.5695 88.0616L59.4465 85.7847L49.7695 90.3385L64.5695 98.3077L79.3695 90.3385L70.8311 85.7847L64.5695 88.0616Z" fill="white"/>
<path d="M64.5695 30L49.7695 37.4L58.8772 43.0923L64.5695 40.2462L69.1234 43.0923L79.3695 38.5385L64.5695 30Z" fill="white"/>
</svg>
