<svg width="128" height="136" viewBox="0 0 128 136" fill="none" xmlns="http://www.w3.org/2000/svg">
<circle cx="64" cy="72" r="60" fill="black" stroke="black" stroke-width="8"/>
<circle cx="64" cy="64" r="60" fill="#1A3D61" stroke="#C91A41" stroke-width="8"/>
<path d="M92.8761 39.1235C92.6503 38.4581 92.3808 38.283 91.96 38.1167C91.0395 37.7752 89.4802 38.2918 89.4802 38.2918C89.4802 38.2918 34.2807 58.1476 31.1272 60.345C30.4482 60.8178 30.2207 61.0979 30.1079 61.4219C29.5627 62.9802 31.2611 63.6718 31.2611 63.6718L45.4886 68.3119C45.4886 68.3119 46.0189 68.3906 46.2079 68.2681C49.4445 66.2195 78.7719 47.6944 80.4633 47.0728C80.7302 46.994 80.9279 47.0816 80.8754 47.2654C80.1982 49.6467 54.726 72.2953 54.726 72.2953C54.726 72.2953 54.6289 72.4178 54.5677 72.5579L54.5344 72.5404L53.207 86.6618C53.207 86.6618 52.6505 90.9867 56.9739 86.6618C60.0242 83.6064 62.9755 81.05 64.4525 79.8156C69.3447 83.1949 74.6095 86.9332 76.8819 88.8855C78.0229 89.8661 78.9776 90.0236 79.7633 89.9974C81.9202 89.9186 82.5222 87.5461 82.5222 87.5461C82.5222 87.5461 92.5812 47.0378 92.9172 41.6098C92.9505 41.0758 92.996 40.7431 92.9995 40.3754C93.0056 39.8676 92.9583 39.3599 92.8761 39.1235Z" fill="white"/>
</svg>
